<svg xmlns="http://www.w3.org/2000/svg" xmlns:xlink="http://www.w3.org/1999/xlink" viewBox="0 0 2803.11 2800"><defs><style>.cls-1{fill:url(#linear-gradient);}.cls-2{fill:url(#linear-gradient-2);}.cls-3{isolation:isolate;}.cls-4{fill:#f4f7fa;}.cls-5{clip-path:url(#clip-path);}.cls-13,.cls-16,.cls-17,.cls-40,.cls-6{mix-blend-mode:soft-light;}.cls-6{opacity:0.8;}.cls-17,.cls-40,.cls-7{fill:#fff;}.cls-8{clip-path:url(#clip-path-2);}.cls-9{fill:#d8dee8;}.cls-10{fill:url(#linear-gradient-5);}.cls-11{fill:url(#linear-gradient-6);}.cls-12{fill:url(#linear-gradient-7);}.cls-14{fill:url(#linear-gradient-8);}.cls-15{fill:url(#linear-gradient-9);}.cls-16,.cls-17{opacity:0.5;}.cls-18{fill:url(#linear-gradient-10);}.cls-19{fill:url(#linear-gradient-11);}.cls-20{fill:url(#linear-gradient-12);}.cls-21{fill:url(#linear-gradient-13);}.cls-22{fill:url(#linear-gradient-14);}.cls-23{fill:url(#linear-gradient-15);}.cls-24,.cls-36,.cls-37{mix-blend-mode:multiply;}.cls-24{opacity:0.3;fill:url(#linear-gradient-16);}.cls-25{fill:url(#linear-gradient-17);}.cls-26{fill:url(#linear-gradient-18);}.cls-27{fill:url(#linear-gradient-19);}.cls-28{fill:url(#linear-gradient-20);}.cls-29{fill:url(#linear-gradient-21);}.cls-30{fill:url(#linear-gradient-22);}.cls-31{fill:url(#linear-gradient-23);}.cls-32{fill:url(#linear-gradient-24);}.cls-33{fill:url(#linear-gradient-25);}.cls-34{fill:url(#linear-gradient-26);}.cls-35{fill:url(#linear-gradient-27);}.cls-36,.cls-37{opacity:0.1;}.cls-36{fill:url(#linear-gradient-28);}.cls-37{fill:url(#linear-gradient-29);}.cls-38{fill:url(#linear-gradient-30);}.cls-39{fill:url(#linear-gradient-31);}.cls-40{opacity:0.4;}</style><linearGradient id="linear-gradient" x1="1875" y1="2019.62" x2="2605.39" y2="46.99" gradientUnits="userSpaceOnUse"><stop offset="0" stop-color="#ffad89"/><stop offset="1" stop-color="#4b5783"/></linearGradient><linearGradient id="linear-gradient-2" x1="1334.31" y1="1824.87" x2="2751.03" y2="1824.87" gradientUnits="userSpaceOnUse"><stop offset="0" stop-color="#ffad89"/><stop offset="1" stop-color="#f1416c"/></linearGradient><clipPath id="clip-path"><path class="cls-1" d="M2472.58,228.56c-32.09-26.55-80.77-41-121.92-43.93C2059,164,2016.4,773.68,2061.11,909.94s15.74,181-214,252.29-119.52,208.55-91.51,288.82,83.44,148.08-84,227.84-109.27,129.17-109.27,129.17,308.84,315.91,291.78,214.77,13.85-253.86,290.75-265.46c119.27-5,301.91-61.9,342.36-189.6,9.42-29.74,16-75.16,8.8-105.94-9.94-42.7-38-76.34-53.52-116.53-36.27-93.65,54.68-162.23,107-224.83,27.32-32.68,54.63-66.19,75.56-103.45,43.45-77.36,27.18-160.32-20.13-231.63-22.68-34.19-54.21-70.47-64.1-111.25-10.63-43.82-1.37-103.68,1.16-148.75,2-35.35,5.34-70.56,3.36-106C2541.66,353.48,2526.23,273,2472.58,228.56Z"/></clipPath><clipPath id="clip-path-2"><path class="cls-2" d="M2728.59,1126.59c-21.22-35.84-62.13-65.92-99.86-82.59-267.5-118.15-513.86,441.19-517.9,584.54s-46.44,175.65-286.73,165-183,155.81-183.85,240.82,28.42,167.58-156.16,186-146.54,84.59-146.54,84.59,183.73,401.78,201.9,300.83,98.93-234.21,363.43-151.43c113.92,35.66,305,43.92,386.31-62.57,18.93-24.8,40.46-65.32,44.13-96.71,5.1-43.54-9.89-84.68-10.93-127.76-2.44-100.4,106.35-134.16,176.79-175.35,36.77-21.51,73.81-43.8,106.11-71.78,67.06-58.1,79.83-141.67,59.44-224.78-9.78-39.85-27.17-84.66-22.68-126.38,4.82-44.83,33.79-98,51.42-139.58,13.83-32.59,28.91-64.59,39-98.61C2751.33,1267.51,2764.05,1186.51,2728.59,1126.59Z"/></clipPath><linearGradient id="linear-gradient-5" x1="819.03" y1="1490.89" x2="400.85" y2="1536.51" gradientTransform="matrix(-1, 0, 0, 1, 2516.92, 0)" gradientUnits="userSpaceOnUse"><stop offset="0" stop-color="#444b8c"/><stop offset="1" stop-color="#26264f"/></linearGradient><linearGradient id="linear-gradient-6" x1="1187.49" y1="436.78" x2="153.45" y2="3957.08" xlink:href="#linear-gradient-5"/><linearGradient id="linear-gradient-7" x1="800.01" y1="350.07" x2="-415.27" y2="3641.45" gradientTransform="matrix(-1, 0, 0, 1, 2516.92, 0)" gradientUnits="userSpaceOnUse"><stop offset="0" stop-color="#ffc444"/><stop offset="1" stop-color="#f36f56"/></linearGradient><linearGradient id="linear-gradient-8" x1="8041.58" y1="7816.55" x2="7210.32" y2="8600.39" gradientTransform="translate(-859.02 17324.43) rotate(180)" gradientUnits="userSpaceOnUse"><stop offset="0" stop-color="#311944"/><stop offset="1" stop-color="#893976"/></linearGradient><linearGradient id="linear-gradient-9" x1="254.73" y1="860.73" x2="920.84" y2="256.25" gradientUnits="userSpaceOnUse"><stop offset="0" stop-color="#fe9a00"/><stop offset="1" stop-color="#ffad89"/></linearGradient><linearGradient id="linear-gradient-10" x1="-1034.38" y1="1386.34" x2="-902.38" y2="1520.7" gradientTransform="matrix(-1, 0, 0, 1, -104.77, 0)" xlink:href="#linear-gradient-7"/><linearGradient id="linear-gradient-11" x1="-707.19" y1="2662.58" x2="-708.31" y2="2364.51" gradientTransform="matrix(-1, 0, 0, 1, -104.77, 0)" xlink:href="#linear-gradient-2"/><linearGradient id="linear-gradient-12" x1="-3775.7" y1="2967.24" x2="-3773.86" y2="2812.58" gradientTransform="matrix(-1, 0.08, 0.08, 1, -3427.81, 102.29)" xlink:href="#linear-gradient-7"/><linearGradient id="linear-gradient-13" x1="376.2" y1="2757.65" x2="476.38" y2="2757.65" xlink:href="#linear-gradient-2"/><linearGradient id="linear-gradient-14" x1="-3596.86" y1="2969.37" x2="-3595.02" y2="2814.7" gradientTransform="matrix(-1, 0.08, 0.08, 1, -3427.81, 102.29)" xlink:href="#linear-gradient-7"/><linearGradient id="linear-gradient-15" x1="-672.28" y1="1982.29" x2="-563.02" y2="2540.85" gradientTransform="matrix(-1, 0, 0, 1, -104.77, 0)" gradientUnits="userSpaceOnUse"><stop offset="0" stop-color="#311944"/><stop offset="1" stop-color="#4b5783"/></linearGradient><linearGradient id="linear-gradient-16" x1="-3864.87" y1="2469.83" x2="-3700.2" y2="2469.83" gradientTransform="matrix(-1, 0.08, 0.08, 1, -3427.81, 102.29)" xlink:href="#linear-gradient-8"/><linearGradient id="linear-gradient-17" x1="-3771.9" y1="2493.36" x2="-3521.92" y2="2493.36" gradientTransform="matrix(-1, 0.08, 0.08, 1, -3427.81, 102.29)" xlink:href="#linear-gradient-15"/><linearGradient id="linear-gradient-18" x1="-832.83" y1="1463.85" x2="-648.48" y2="2647.82" gradientTransform="matrix(-1, 0, 0, 1, -104.77, 0)" gradientUnits="userSpaceOnUse"><stop offset="0" stop-color="#fe9a00"/><stop offset="1" stop-color="#ffad89"/></linearGradient><linearGradient id="linear-gradient-19" x1="-3539.13" y1="2953.37" x2="-3354.78" y2="4137.34" gradientTransform="matrix(-1, 0.08, 0.08, 1, -3427.81, 102.29)" xlink:href="#linear-gradient-18"/><linearGradient id="linear-gradient-20" x1="-3269.5" y1="2523.02" x2="-3827.41" y2="1722.08" gradientTransform="matrix(-1, 0.08, 0.08, 1, -3427.81, 102.29)" gradientUnits="userSpaceOnUse"><stop offset="0" stop-color="#aa80f9"/><stop offset="1" stop-color="#fb9a00"/></linearGradient><linearGradient id="linear-gradient-21" x1="-312.04" y1="1773.17" x2="-415.83" y2="1913.38" gradientTransform="matrix(-1, 0, 0, 1, -104.77, 0)" xlink:href="#linear-gradient-7"/><linearGradient id="linear-gradient-22" x1="-3323.27" y1="2919.76" x2="-3138.92" y2="4103.74" gradientTransform="matrix(-1, 0.08, 0.08, 1, -3427.81, 102.29)" xlink:href="#linear-gradient-18"/><linearGradient id="linear-gradient-23" x1="-5002.12" y1="4791.97" x2="-5002.12" y2="4632.48" gradientTransform="matrix(-0.78, 0.63, 0.63, 0.78, -6399.3, 822.27)" xlink:href="#linear-gradient-7"/><linearGradient id="linear-gradient-24" x1="-3739.6" y1="1579.68" x2="-3806.31" y2="1410.25" gradientTransform="matrix(-1, 0.08, 0.08, 1, -3427.81, 102.29)" gradientUnits="userSpaceOnUse"><stop offset="0" stop-color="#444b8c"/><stop offset="1" stop-color="#3e4177"/></linearGradient><linearGradient id="linear-gradient-25" x1="-5114.85" y1="4746" x2="-5040.29" y2="4601.01" gradientTransform="matrix(-0.78, 0.63, 0.63, 0.78, -6399.3, 822.27)" xlink:href="#linear-gradient-7"/><linearGradient id="linear-gradient-26" x1="836.34" y1="1523.01" x2="2179.39" y2="1523.01" gradientTransform="matrix(1, 0, 0, 1, 0, 0)" xlink:href="#linear-gradient-8"/><linearGradient id="linear-gradient-27" x1="1652.87" y1="4164.55" x2="1492.73" y2="1390.63" gradientUnits="userSpaceOnUse"><stop offset="0" stop-color="#fe9a00"/><stop offset="1" stop-color="#ffc444"/></linearGradient><linearGradient id="linear-gradient-28" x1="1017.51" y1="1376.95" x2="1983.82" y2="1376.95" gradientUnits="userSpaceOnUse"><stop offset="0" stop-color="#f36f56"/><stop offset="1" stop-color="#ffc444"/></linearGradient><linearGradient id="linear-gradient-29" x1="983.35" y1="1630.47" x2="1948.92" y2="1630.47" xlink:href="#linear-gradient-28"/><linearGradient id="linear-gradient-30" x1="1457.95" y1="1724.07" x2="1242.11" y2="3092.86" xlink:href="#linear-gradient-28"/><linearGradient id="linear-gradient-31" x1="1528.95" y1="298.92" x2="1575.05" y2="1671.6" xlink:href="#linear-gradient-28"/></defs><g class="cls-3"><g id="Layer_2" data-name="Layer 2"><g id="Illustration"><path class="cls-4" d="M2710.44,1084.2c-30.3-373.58-45.45-560.36-116-681.22C2392.55,57,1805.52-25.35,1434.76,6.21,938.4,48.44,370.57,333.78,120.62,884.71-106.4,1385.1-1.72,1951.51,340.35,2322,967.41,3001.24,2260.92,2880,2576.89,2434.29c126.1-177.87,135.19-462,148.55-879.3C2731.86,1354.1,2719.34,1194,2710.44,1084.2Z"/><path class="cls-1" d="M2472.58,228.56c-32.09-26.55-80.77-41-121.92-43.93C2059,164,2016.4,773.68,2061.11,909.94s15.74,181-214,252.29-119.52,208.55-91.51,288.82,83.44,148.08-84,227.84-109.27,129.17-109.27,129.17,308.84,315.91,291.78,214.77,13.85-253.86,290.75-265.46c119.27-5,301.91-61.9,342.36-189.6,9.42-29.74,16-75.16,8.8-105.94-9.94-42.7-38-76.34-53.52-116.53-36.27-93.65,54.68-162.23,107-224.83,27.32-32.68,54.63-66.19,75.56-103.45,43.45-77.36,27.18-160.32-20.13-231.63-22.68-34.19-54.21-70.47-64.1-111.25-10.63-43.82-1.37-103.68,1.16-148.75,2-35.35,5.34-70.56,3.36-106C2541.66,353.48,2526.23,273,2472.58,228.56Z"/><g class="cls-5"><g class="cls-6"><path class="cls-7" d="M1538,1985.37a4.31,4.31,0,0,1-3.45-7.88c1.3-.68,131.32-69.07,276.36-181.71,133.65-103.79,307.76-267.45,378.25-457.69,58.88-158.9,112.57-421.57,147.32-720.67,31.15-268.21,36.08-466.57,22.83-503.39a4.31,4.31,0,0,1,8.12-2.92c15.49,43.07,5.66,265.91-22.38,507.3-34.82,299.76-88.69,563.16-147.8,722.67-71.22,192.2-246.59,357.11-381.17,461.61-145.64,113.08-276.23,181.76-277.53,182.44A5.38,5.38,0,0,1,1538,1985.37Z"/><path class="cls-7" d="M2336,669.41c-2.23.8-4.5.18-5.32-2-1.08-3-109.81-295.5-250-361.55a4.14,4.14,0,0,1-2-5.61,4.32,4.32,0,0,1,5.76-2c143.43,67.56,249.91,354,254.38,366.16.82,2.23-.5,4.24-2.74,5Z"/><path class="cls-7" d="M2283,1008.68a4.31,4.31,0,0,1-4.2-7.39c.79-.66,80.85-66.33,179.64-121.44,133.47-74.46,235.75-95.25,304-61.78a4.31,4.31,0,1,1-3.8,7.74c-157.06-77-471.22,179.54-474.38,182.14A4.32,4.32,0,0,1,2283,1008.68Z"/><path class="cls-7" d="M1934.44,1702.15a4,4,0,0,1-1.39.25,4.3,4.3,0,0,1-4.38-4.24c0-1.26-2.24-126.78-28.51-259-24.09-121.26-73.83-273.15-174-308.15a4.32,4.32,0,0,1,2.84-8.15c83.52,29.19,144,135.08,179.63,314.73,26.41,133,28.63,259.2,28.65,260.46A4.31,4.31,0,0,1,1934.44,1702.15Z"/><path class="cls-7" d="M2112.67,1499.36a4.31,4.31,0,0,1-4-7.52c13.89-10.27,341.53-251.15,469.3-228.14a4.31,4.31,0,1,1-1.53,8.49c-124.15-22.35-459.27,224.09-462.64,226.58A4.35,4.35,0,0,1,2112.67,1499.36Z"/></g></g><path class="cls-2" d="M2728.59,1126.59c-21.22-35.84-62.13-65.92-99.86-82.59-267.5-118.15-513.86,441.19-517.9,584.54s-46.44,175.65-286.73,165-183,155.81-183.85,240.82,28.42,167.58-156.16,186-146.54,84.59-146.54,84.59,183.73,401.78,201.9,300.83,98.93-234.21,363.43-151.43c113.92,35.66,305,43.92,386.31-62.57,18.93-24.8,40.46-65.32,44.13-96.71,5.1-43.54-9.89-84.68-10.93-127.76-2.44-100.4,106.35-134.16,176.79-175.35,36.77-21.51,73.81-43.8,106.11-71.78,67.06-58.1,79.83-141.67,59.44-224.78-9.78-39.85-27.17-84.66-22.68-126.38,4.82-44.83,33.79-98,51.42-139.58,13.83-32.59,28.91-64.59,39-98.61C2751.33,1267.51,2764.05,1186.51,2728.59,1126.59Z"/><g class="cls-8"><g class="cls-6"><path class="cls-7" d="M1254.7,2463.53a4.31,4.31,0,0,1-.58-8.58c1.45-.2,146.94-20.56,321.54-77.48,160.88-52.44,380.1-147.53,510.81-302.7,109.17-129.6,248.58-358.61,382.48-628.31,120.08-241.84,191.83-426.84,191.83-466a4.31,4.31,0,1,1,8.62,0c0,45.78-84.65,252.14-192.72,469.81-134.2,270.29-274,499.92-383.61,630-132.05,156.76-352.88,252.6-514.88,305.39-175.31,57.13-321.44,77.57-322.9,77.77A3.9,3.9,0,0,1,1254.7,2463.53Z"/><path class="cls-7" d="M2450.91,1496.11a4.22,4.22,0,0,1-4.31-4.17c0-3.14-3.35-315.45-112.95-425a4.27,4.27,0,0,1,0-6.07,4.31,4.31,0,0,1,6.1,0c112.11,112.11,115.39,418.07,115.48,431.05a4.22,4.22,0,0,1-4.29,4.23Z"/><path class="cls-7" d="M2286.22,1796.54a4.32,4.32,0,0,1-1.46-8.38c1-.34,98.53-35.06,210.14-53.49,150.79-24.91,254.08-9.85,307,44.74a4.31,4.31,0,1,1-6.19,6c-121.74-125.6-504.18,9.5-508,10.87A4.11,4.11,0,0,1,2286.22,1796.54Z"/><path class="cls-7" d="M1723.57,2331.16a4.24,4.24,0,0,1-1.4-.23,4.32,4.32,0,0,1-2.68-5.48c.4-1.19,40.79-120,60.82-253.4,18.36-122.25,23-282-59.46-348.84a4.31,4.31,0,0,1,5.43-6.7c68.72,55.72,89.76,175.81,62.54,356.94-20.15,134.1-60.76,253.6-61.17,254.79A4.32,4.32,0,0,1,1723.57,2331.16Z"/><path class="cls-7" d="M1959.9,2200.64a4.31,4.31,0,0,1-1.24-8.44c16.54-5,406.36-120.76,518.81-55.88a4.31,4.31,0,1,1-4.31,7.47c-109.27-63-508,55.47-512,56.67A4.48,4.48,0,0,1,1959.9,2200.64Z"/></g></g><path class="cls-9" d="M1831.91,119,1828.83,141a172.48,172.48,0,0,0-30.08,4l-8.34-20.58a10.93,10.93,0,0,0-14.34-6L1740.7,133a11.17,11.17,0,0,0-6.16,14.42l8.38,20.84a177.55,177.55,0,0,0-24.2,18.48L1700.93,173a11.11,11.11,0,0,0-15.54,2.05l-23.77,30.4a11.08,11.08,0,0,0,1.8,15.58l17.84,13.87a177.63,177.63,0,0,0-12,28.16l-22.63-3a11.37,11.37,0,0,0-12.64,9.63l-5.69,38.34a11,11,0,0,0,9.39,12.58l22.69,3a176.21,176.21,0,0,0,3.41,30.44L1642.53,363a11.49,11.49,0,0,0-6.3,14.75l14.19,36.06a11,11,0,0,0,14.53,6.1l21.31-8.92a175.24,175.24,0,0,0,18.26,24.57L1690.32,454a11.43,11.43,0,0,0,1.84,15.95l30.44,23.88a11.18,11.18,0,0,0,15.78-2.15l14-18.31a171.86,171.86,0,0,0,28.33,11.91l-3.19,22.86a11.21,11.21,0,0,0,9.54,12.79l38.44,5A11.4,11.4,0,0,0,1838.2,516l3.11-22.68A172.81,172.81,0,0,0,1872,489.3l8.43,21a11.06,11.06,0,0,0,14.63,6.13l35.84-15.18a11.52,11.52,0,0,0,6.1-14.91l-8.43-20.81a179.49,179.49,0,0,0,24.64-19.15L1970.74,460a11.09,11.09,0,0,0,15.68-2.14l23.47-31.12a11.4,11.4,0,0,0-2.07-15.85l-17.36-13.45a177.33,177.33,0,0,0,11.78-29l21.71,2.85a11.15,11.15,0,0,0,12.46-9.71l4.93-38.45a11.19,11.19,0,0,0-9.58-12.54l-21.64-2.84a176.47,176.47,0,0,0-4-30.75l20.07-8.4a11.16,11.16,0,0,0,6-14.56l-14.66-35.45a11,11,0,0,0-14.44-6L1982.88,221a174.24,174.24,0,0,0-18.63-24.29l13.34-17.41a11.06,11.06,0,0,0-2-15.49l-30.15-23.17a11,11,0,0,0-15.46,2l-13.42,17.43a171.66,171.66,0,0,0-28.1-11.51l3-21.89a10.93,10.93,0,0,0-9.42-12.33l-37.67-4.94A11.11,11.11,0,0,0,1831.91,119ZM1699.1,297.65c10.88-75.76,80.42-128.87,155.37-119s127.58,79,117.52,154.83c-10.13,76.33-79.81,130.49-155.58,120.55S1688.14,373.87,1699.1,297.65Z"/><path class="cls-9" d="M1254.29,107l-4.77,34.11a267.82,267.82,0,0,0-46.51,6.16l-12.89-31.82a16.9,16.9,0,0,0-22.18-9.2l-54.68,22.53a17.24,17.24,0,0,0-9.52,22.29l13,32.22a276.37,276.37,0,0,0-37.43,28.58l-27.49-21.31a17.19,17.19,0,0,0-24,3.17l-36.74,47a17.11,17.11,0,0,0,2.78,24.09l27.57,21.43a274,274,0,0,0-18.49,43.55l-35-4.59a17.59,17.59,0,0,0-19.55,14.9l-8.79,59.28A17,17,0,0,0,954,418.85l35.09,4.6a272.43,272.43,0,0,0,5.28,47.07l-32.93,13.73a17.79,17.79,0,0,0-9.74,22.81l21.94,55.75a17,17,0,0,0,22.48,9.43l32.94-13.79a271.56,271.56,0,0,0,28.23,38l-22,28.51a17.66,17.66,0,0,0,2.84,24.65l47.07,36.93a17.27,17.27,0,0,0,24.39-3.33l21.69-28.32a264.73,264.73,0,0,0,43.81,18.42l-4.94,35.35A17.36,17.36,0,0,0,1185,728.44l59.43,7.79A17.64,17.64,0,0,0,1264,721l4.79-35.08a268.06,268.06,0,0,0,47.49-6.26l13,32.41a17.13,17.13,0,0,0,22.62,9.48L1407.37,698a17.8,17.8,0,0,0,9.44-23l-13-32.18a276.63,276.63,0,0,0,38.09-29.61l27.09,21a17.11,17.11,0,0,0,24.23-3.3l36.3-48.11a17.65,17.65,0,0,0-3.2-24.51l-26.85-20.8a275.21,275.21,0,0,0,18.22-44.76l33.56,4.4a17.24,17.24,0,0,0,19.27-15l7.61-59.44a17.29,17.29,0,0,0-14.81-19.4l-33.46-4.39a272.64,272.64,0,0,0-6.16-47.54l31-13a17.25,17.25,0,0,0,9.22-22.52l-22.67-54.79a17,17,0,0,0-22.32-9.26l-31.21,13a270.82,270.82,0,0,0-28.8-37.56l20.62-26.92a17.09,17.09,0,0,0-3.13-24l-46.62-35.82a17.06,17.06,0,0,0-23.89,3.16l-20.75,27a264.49,264.49,0,0,0-43.46-17.79l4.63-33.85A16.9,16.9,0,0,0,1331.75,100l-58.24-7.64A17.18,17.18,0,0,0,1254.29,107ZM1048.94,383.29c16.83-117.14,124.34-199.26,240.22-184.06s197.27,122.1,181.71,239.4c-15.66,118-123.4,201.75-240.55,186.38S1032,501.13,1048.94,383.29Z"/><path class="cls-10" d="M1198.56,437.3,943.79,2554.84c-3.82,31.75,18.07,60.21,48.72,63.25l1061.12,116.49c65,4.05,100.59-29.16,104.61-62.92l267.47-2251.3c4-33.57-27.91-64-93.19-64L1261.75,378.94C1230.75,379.46,1202.36,405.72,1198.56,437.3Z"/><path class="cls-11" d="M1150.8,433.66,894.64,2561.79c-3.84,31.9,18.11,60.51,48.88,63.58L2043.6,2734.89c34.49,3.43,66.1-21.52,70.13-55.45l269-2262.93c4-33.75-21.32-60.87-56.19-60.28L1214.24,375C1183.13,375.52,1154.62,401.92,1150.8,433.66Z"/><path class="cls-9" d="M1171.67,551,934.24,2524.24c-3.58,29.81,17,56.49,45.78,59.29L2014.61,2684.1c32.06,3.11,61.44-20.17,65.2-51.76L2328.38,541.92c3.74-31.43-19.78-56.85-52.17-56.51L1231,496.54C1201.91,496.85,1175.24,521.38,1171.67,551Z"/><path class="cls-12" d="M1726.47,432.19c-1.35,11.33,6.78,20.4,18.18,20.26s21.77-9.47,23.12-20.82-6.8-20.42-18.21-20.25S1727.83,420.87,1726.47,432.19Z"/><g class="cls-13"><path class="cls-7" d="M1350.54,1875.58C1562.35,1484,1878.75,1366.77,1974,963.19c51.49-218.16,16.41-427-42.68-600.29l395.19-6.67c34.87-.59,60.2,26.53,56.19,60.28l-269,2262.93c-4,33.93-35.64,58.88-70.13,55.45l-864.77-86.1C1172.44,2297.91,1256.13,2050.13,1350.54,1875.58Z"/></g><path class="cls-14" d="M106.37,658.23c0-208.08,181.51-376.73,399.33-376.71,211.38,0,378.2,159.81,378.2,356.87s-166.82,365.36-378.2,376.17C287.88,1025.7,106.37,866.31,106.37,658.23Z"/><path class="cls-15" d="M129.85,641.64c0-208.08,176.26-376.74,387.78-376.71,205.26,0,367.26,159.8,367.26,356.87S722.89,987.16,517.63,998C306.11,1009.11,129.85,849.71,129.85,641.64Z"/><g class="cls-16"><path class="cls-7" d="M190.2,640.05c0-174.81,148.08-316.51,325.79-316.49,172.45,0,308.56,134.26,308.56,299.83s-136.11,307-308.56,316C338.28,948.79,190.2,814.87,190.2,640.05Z"/></g><path class="cls-17" d="M503.75,350.42c172.46,0,308.56,134.26,308.56,299.83a302.83,302.83,0,0,1-21.82,112.52,304.46,304.46,0,0,0,34.06-139.38c0-165.57-136.11-299.81-308.56-299.83-137.06,0-256.42,84.3-303.89,203.06C265.86,422.22,377.28,350.41,503.75,350.42Z"/><path class="cls-7" d="M368.64,597.26V749.84c0,44.12,37.12,78.91,82.76,77.72l113.17-2.95c45.09-1.18,81.53-37.51,81.53-81.17v-151ZM472.87,755l21-63.73a27.52,27.52,0,0,1-15.11-24.48c0-15.66,13.13-28.61,29.32-28.91s29.25,12.11,29.25,27.74a28.86,28.86,0,0,1-15.07,25.06l21,62.68Z"/><path class="cls-7" d="M613.93,579.25c-12,.2-21.74-9.09-21.74-20.75,0-44.85-37.66-80.85-84.08-80.26-46.6.6-84.63,37.81-84.63,83,0,11.74-9.87,21.42-22.06,21.62s-22.1-9.16-22.1-20.92c0-68.69,57.93-125.23,128.79-126,70.47-.79,127.53,53.91,127.53,121.93C635.64,569.45,625.93,579.05,613.93,579.25Z"/><path class="cls-18" d="M876,1449.52s-7.7-28.86-2.24-36.24,38.8-36.88,35.59-27.26a61.89,61.89,0,0,1-8,16s18,8.33,6.41,20.84-15.4,15.39-16,26.62S883.74,1464.59,876,1449.52Z"/><path class="cls-19" d="M555.68,2695.29s-4.07,25-3.55,33.84,99.09,13.43,100.09,6.77-16.3-17.23-28.47-21-47.78-13.7-47.78-13.7Z"/><path class="cls-20" d="M579.61,2670.41l-3.14,31s-11.45,7.57-21.54,1.73l-5-33.78Z"/><path class="cls-21" d="M379.8,2735.75s-4.08,25-3.56,33.85,99.1,13.42,100.1,6.77-16.3-17.24-28.47-21-47.79-13.7-47.79-13.7Z"/><path class="cls-22" d="M403.73,2710.87l-3.15,31s-11.45,7.56-21.54,1.72l-5-33.78Z"/><path class="cls-23" d="M561.72,1860.15l34.19,69.3c9.16,131.84,13.72,275.19,10.79,428.5-2.17,114.06-8.27,222.11-17,323.53l-46.35-2.12C521,2635,494.61,2567.84,492.18,2484.92c-2.53-86.49,23.7-98,22-180.79-2.15-107.34-47.16-136-71.14-265.09-9.17-49.37-15.35-113.86-8-192.11Z"/><path class="cls-24" d="M435.06,1846.93l68.41,7.14c41,71.43,52.5,145.78,45.3,178.66-10.19,46.53-37.15,61.43-35.67,108.14,1.47,46.22,28.7,58.21,46,112.69,11.95,37.72,8.8,72.4,2,140.22C547.38,2530.39,514.39,2572.17,542,2617c7.85,12.72,22,27.88,49.72,39.45-.68,8.38-1.35,16.78-2.07,25.07l-46.35-2.12C521,2635,494.61,2567.84,492.18,2484.92c-2.53-86.49,23.69-98,22-180.79-2.15-107.34-47.16-136-71.14-265.08C433.9,1989.67,427.72,1925.18,435.06,1846.93Z"/><path class="cls-25" d="M500.42,1901.74c-21.39,116.64-40.28,241.47-55,373.85-17.8,159.85-27.3,310.55-31,450.47l-50.87,1.44c-66.82-132.19-70.9-221.81-61.27-280.17,3.72-22.48,13.8-66.57,16.1-132.46,1.61-45.93-1.32-80.89-5-122.91-8-92.13-17.77-112.24-19.17-182.71-1.31-66.14-1.58-99.6,17.3-119.14C361.21,1838.65,490.6,1897.18,500.42,1901.74Z"/><path class="cls-26" d="M867.17,1445.07l33.83-2.36c26.6,107.51,7.52,211.79-52.52,250.14-93.82,59.93-268.16-53-306-175.89-16.58-54-12.8-131.82,20.34-147,9.2-4.2,23.48-4.86,54.41,12.51,92.37,51.86,94.79,149.88,141.75,158.18C779.91,1544.39,813.63,1531.08,867.17,1445.07Z"/><path class="cls-27" d="M608.89,1953.1c16.24-26.95-4.16-53-8.81-104-5.26-57.89,17-67.53,39.09-163.46,14.67-63.8,28.75-125,11.94-196.75-8.05-34.36-21.71-92.64-70-120.79-24.89-14.53-58.87-13.08-125.82-9.57-82.8,4.33-124.2,6.49-155.07,22.75-4.52,2.38-98.45,53.47-104.91,136.74-6.58,84.76,85.72,96.15,98,209.18,5.53,50.74-4.32,128.78-10.71,179.4-6.13,48.6-10.35,61-.76,75.75,23.11,35.47,93.88,25.36,235.42,5.15C572.87,1979.54,596.76,1973.22,608.89,1953.1Z"/><path class="cls-28" d="M393.53,1709c-6,22-27.51,38.48-42.49,92.07-3.24,11.57-26.28,94,3.61,114.23,17.26,11.71,32.76-10.48,74.66-13.37,72.6-5,107.19,56,154.61,39.33,8.23-2.89,19.09-9.06,29.94-23.22,2.16,12.76,1.79,23.85-5,35.07-12.13,20.12-36,26.44-91.55,34.37-141.54,20.21-212.31,30.32-235.42-5.15-9.59-14.71-5.37-27.15.76-75.75,6.39-50.62,16.24-128.66,10.71-179.4-12.31-113-104.61-124.42-98-209.18,1.76-22.65,10.09-42.83,21.24-60.39C333.69,1505,412.34,1639.76,393.53,1709Z"/><path class="cls-29" d="M245.63,1875.71l23.43,15c4.21-4.86,13.95-14.66,29.15-18,17.13-3.77,36.8,1.63,37.26,7.1.36,4.38-11.61,8.8-13.46,9.48-14.95,5.52-26,.94-32.08,7-2.14,2.12-4.8,6.07-10.93,9.74a32.5,32.5,0,0,1-4.18,2.15c-10,3.88-27.09-13.49-28.56-15Z"/><path class="cls-30" d="M314.85,1568.45c16.94-40.59,28.69-102.74,1.92-195-176.38,69.5-266.33,234.26-231.21,364.87,29,107.66,134.29,160.11,157.79,171.14q8.21-18.67,16.4-37.33c-27.23-30.33-57.91-75.16-53.57-126.33C212.19,1674.83,280.54,1650.62,314.85,1568.45Z"/><path class="cls-31" d="M451,1275s-1.39,30.85-11,54c-8.65,20.88-54.18,34-63.41,38.67s17.29,18.28,43.92,21,102.68-3.37,116.38-13.46-11-9.34-30-16.32-30-44.14-26.64-61S451,1275,451,1275Z"/><path class="cls-32" d="M493.12,1263.81c13.81-13.58,15.74-15.16,17.25-19.85,6-18.84-8.57-44.63-27.73-51-1-.33-13.85-4.44-18.75,1.13-4.17,4.74,2,11.28-.95,20.4-2.73,8.54-10.14,9.18-23.86,20.38-11.31,9.23-18.33,15-19.95,23-3.34,16.63,16.79,40.73,34.61,40.08C460.15,1297.76,461.89,1294.49,493.12,1263.81Z"/><path class="cls-33" d="M455.49,1300.57s14.68,16.63,37.06,11.13c20-4.92,14.92-50.9.26-58.25-4.89-2.44-13.78-2.24-20.46,1-4,1.9-5.05,3.88-11.56,6.86-6,2.75-7.91,2.37-9.52,4.31-2,2.42-2.89,7.63,3.44,20.22-4.56-3.23-9.47-3.91-12.48-1.77a6.93,6.93,0,0,0-2.23,3.11C438.09,1292.85,444,1298.64,455.49,1300.57Z"/><path class="cls-34" d="M2130.75,678l5.17,27.91h0l-106.43.25-923.6,2.19c-23.76,0-45.62,19.69-48.87,43.87L836.54,2225.77c-3.28,24.39,34.68,61.62,58.3,63.44l409.76,31.49v-.49l612.92,47h0l1.49.62c26.17,2,50.18-17,53.57-42.73,0,0,0,.11,0,.1L2179.09,752C2182.44,726.44,2157.07,678,2130.75,678Z"/><path class="cls-35" d="M1951.72,2294.45c-3.38,25.77-27.38,45-53.55,43L872.93,2258.75c-23.61-1.82-40-23.06-36.76-47.45L1036.6,722.1c3.25-24.17,25.09-43.81,48.84-43.87l1031-2.84c26.31-.07,45,20.56,41.62,46.08Z"/><path class="cls-7" d="M1965.34,1475.48c-1.68,12.76-13.6,22.28-26.62,21.8l-902.34-32.93c-11.91-.43-20.29-10.24-18.65-22.43l17.74-131.49c1.64-12.18,12.51-20.42,24.43-20.09L1963,1315.42c13,.36,22.27,9.57,20.6,22.33Z"/><path class="cls-7" d="M1930.39,1742.65c-1.68,12.79-13.61,23.7-26.62,23l-901.65-44.54c-11.91-.59-20.19-12-18.55-24.18l17.88-134c1.64-12.2,12.61-22.65,24.52-22.17l902.2,36.39c13,.53,22.23,12.31,20.55,25.08Z"/><path class="cls-36" d="M1983.69,1337.21a24.59,24.59,0,0,0-6.88-1.14L1073.66,1311c-11.91-.35-22.79,7.91-24.41,20.07l-17.76,131.49c0,.35-.07.66-.11,1-9.16-2.58-15-11.26-13.67-21.66l17.77-131.49c1.62-12.15,12.5-20.42,24.41-20.07L1963,1315.41C1975.84,1315.79,1985,1324.71,1983.69,1337.21Z"/><path class="cls-37" d="M1948.92,1599.3a21.21,21.21,0,0,0-7-1.48l-902.18-36.39c-11.91-.49-22.9,10-24.52,22.17l-17.9,134a21.84,21.84,0,0,0-.17,2.55c-9.16-3-15-12.81-13.6-23.21l17.9-134c1.62-12.19,12.6-22.65,24.52-22.17l902.17,36.39A21.83,21.83,0,0,1,1948.92,1599.3Z"/><path class="cls-38" d="M1690.6,1959.2c2.66-20.17-11.6-38.75-31.87-39.92L1192,1892.48c-19.33-1.11-37.19,15.17-39.81,34.81l-19.27,145.18c-2.63,19.67,10.79,38.49,30.1,39.81l466.52,31.92c20.26,1.39,38.92-15.72,41.58-35.92Z"/><path class="cls-39" d="M1725.85,981.07c-6.15,46.41-30,88.3-63.89,119.11-36.53,33.22-84.65,53.44-134.69,52.48-49.79-1-91.69-22.72-118.61-56.69-24.82-31.3-37-73-30.89-118.66,12.67-94.93,99.89-171.67,195.6-171.44C1670,806.09,1738.63,884.52,1725.85,981.07Z"/><path class="cls-7" d="M1632.77,928.32c-5.52,41.58-43.9,74.89-85.56,74.39s-70.57-34.36-65.07-75.64,43.49-74.56,85-74.37C1608.84,852.89,1638.29,886.74,1632.77,928.32Z"/><path class="cls-7" d="M1662,1100.18c-36.53,33.22-84.65,53.44-134.69,52.48-49.79-1-91.69-22.72-118.61-56.69,30.81-42.91,81.6-71.45,135.55-70.74C1598.45,1025.93,1642.17,1056,1662,1100.18Z"/><path class="cls-40" d="M2158.09,721.47l-206.37,1573c-3.38,25.76-28.91,44.92-55.07,42.91l-615.77-47.29a328.11,328.11,0,0,1-70.53-109,336.81,336.81,0,0,1-18.73-68c-11.43-66.42-7-141.91,9.67-216a713.54,713.54,0,0,1,58.65-164.19c20.58-40.63,44.78-77.78,71.81-109,19.46-22.47,40.51-44.3,62.71-65.71,26.77-25.84,55.22-51.06,84.56-76.05,68.39-58.27,141.62-115.24,209.43-175.4,156.44-138.78,283.36-293.85,252.82-515.11-1-7-10.51-60.34-22.69-115.66l196.36-.54C2141.24,675.32,2161.44,696,2158.09,721.47Z"/></g></g></g></svg>